<svg xmlns="http://www.w3.org/2000/svg" xmlns:xlink="http://www.w3.org/1999/xlink" width="557.088" height="128" viewBox="0 0 557.088 128">
  <defs>
    <linearGradient id="linear-gradient" y1="0.5" x2="1" y2="0.5" gradientUnits="objectBoundingBox">
      <stop offset="0" stop-color="#2be9a3"/>
      <stop offset="0.135" stop-color="#31e99f"/>
      <stop offset="0.326" stop-color="#43eb95"/>
      <stop offset="0.549" stop-color="#61ee85"/>
      <stop offset="0.794" stop-color="#8bf26e"/>
      <stop offset="1" stop-color="#b4f759"/>
    </linearGradient>
  </defs>
  <g id="Group_219" data-name="Group 219" transform="translate(-829.386 -567)">
    <g id="Group_104" data-name="Group 104" transform="translate(602.474 -54)">
      <text id="Deep_dIverSified_inTeractIve_Learning" data-name="Deep dIverSified inTeractIve Learning" transform="translate(356 743)" font-size="25" font-family="SFCompactText-Regular, SF Text"><tspan x="0" y="0">Deep dIverSified inTeractIve Learning</tspan></text>
      <text id="DISTIL" transform="translate(356 699)" fill="#50ec8e" font-size="82" font-family="SFCompactText-Medium, SF Text" font-weight="500"><tspan x="0" y="0">DISTIL</tspan></text>
    </g>
    <g id="Group_216" data-name="Group 216" transform="translate(293.139 486.753)">
      <path id="Path_624" data-name="Path 624" d="M545.216,119.289c-1.12-.647-2.028-.129-2.028,1.156a4.465,4.465,0,0,0,2.028,3.5c1.119.647,2.028.13,2.028-1.156A4.468,4.468,0,0,0,545.216,119.289Zm27.761,16.028c-1.12-.647-2.029-.129-2.029,1.156a4.467,4.467,0,0,0,2.029,3.5c1.119.647,2.028.129,2.028-1.156A4.468,4.468,0,0,0,572.977,135.317Zm-6.94-4.008c-1.121-.646-2.029-.129-2.029,1.156a4.471,4.471,0,0,0,2.029,3.5c1.119.646,2.028.129,2.028-1.156A4.473,4.473,0,0,0,566.037,131.31ZM552.156,123.3c-1.121-.646-2.028-.129-2.028,1.157a4.467,4.467,0,0,0,2.028,3.5c1.119.646,2.028.129,2.028-1.156A4.473,4.473,0,0,0,552.156,123.3Zm6.94,4.008c-1.119-.647-2.028-.129-2.028,1.156a4.469,4.469,0,0,0,2.028,3.5c1.121.647,2.028.129,2.028-1.156A4.465,4.465,0,0,0,559.1,127.3Zm20.821,16.675c1.12.646,2.028.129,2.028-1.156a4.468,4.468,0,0,0-2.028-3.5c-1.121-.646-2.028-.129-2.028,1.156A4.469,4.469,0,0,0,579.917,143.979Zm-41.642-28.7c-1.119-.647-2.028-.13-2.028,1.156a4.47,4.47,0,0,0,2.028,3.5c1.12.646,2.029.129,2.029-1.156A4.467,4.467,0,0,0,538.275,115.283Zm27.762,24.384c-1.121-.646-2.029-.129-2.029,1.156a4.471,4.471,0,0,0,2.029,3.5c1.119.646,2.028.129,2.028-1.157A4.469,4.469,0,0,0,566.037,139.667Zm13.88,8.014c-1.121-.646-2.028-.129-2.028,1.156a4.469,4.469,0,0,0,2.028,3.5c1.12.646,2.028.129,2.028-1.157A4.465,4.465,0,0,0,579.917,147.681Zm-27.761-16.028c-1.121-.646-2.028-.129-2.028,1.156a4.469,4.469,0,0,0,2.028,3.5c1.119.646,2.028.129,2.028-1.156A4.473,4.473,0,0,0,552.156,131.653Zm-6.94-4.006c-1.12-.647-2.028-.129-2.028,1.156a4.465,4.465,0,0,0,2.028,3.5c1.119.647,2.028.129,2.028-1.156A4.468,4.468,0,0,0,545.216,127.647Zm13.88,8.014c-1.119-.647-2.028-.13-2.028,1.156a4.469,4.469,0,0,0,2.028,3.5c1.121.647,2.028.129,2.028-1.156A4.465,4.465,0,0,0,559.1,135.661Zm13.881,8.014c-1.12-.647-2.029-.13-2.029,1.155a4.467,4.467,0,0,0,2.029,3.5c1.119.646,2.028.129,2.028-1.156A4.468,4.468,0,0,0,572.977,143.675Zm-34.7-20.036c-1.119-.646-2.028-.129-2.028,1.156a4.472,4.472,0,0,0,2.028,3.5c1.12.646,2.029.129,2.029-1.156A4.469,4.469,0,0,0,538.275,123.639ZM559.1,144.017c-1.119-.646-2.028-.129-2.028,1.156a4.473,4.473,0,0,0,2.028,3.5c1.121.646,2.028.129,2.028-1.156A4.468,4.468,0,0,0,559.1,144.017ZM538.275,132c-1.119-.647-2.028-.129-2.028,1.156a4.468,4.468,0,0,0,2.028,3.5c1.12.647,2.029.13,2.029-1.156A4.467,4.467,0,0,0,538.275,132ZM545.216,136c-1.12-.646-2.028-.129-2.028,1.156a4.469,4.469,0,0,0,2.028,3.5c1.119.646,2.028.129,2.028-1.156A4.472,4.472,0,0,0,545.216,136Zm6.94,4.008c-1.121-.647-2.028-.129-2.028,1.156a4.465,4.465,0,0,0,2.028,3.5c1.119.647,2.028.129,2.028-1.156A4.469,4.469,0,0,0,552.156,140.01Zm20.821,12.02c-1.12-.646-2.029-.129-2.029,1.156a4.471,4.471,0,0,0,2.029,3.5c1.119.646,2.028.129,2.028-1.156A4.472,4.472,0,0,0,572.977,152.031Zm-6.94-4.006c-1.121-.647-2.029-.13-2.029,1.156a4.467,4.467,0,0,0,2.029,3.5c1.119.647,2.028.129,2.028-1.156A4.469,4.469,0,0,0,566.037,148.024Zm13.88,8.014c-1.121-.647-2.028-.13-2.028,1.156a4.465,4.465,0,0,0,2.028,3.5c1.12.647,2.028.129,2.028-1.156A4.466,4.466,0,0,0,579.917,156.038Zm-27.761-7.671c-1.121-.647-2.028-.13-2.028,1.155a4.466,4.466,0,0,0,2.028,3.5c1.119.647,2.028.129,2.028-1.156A4.469,4.469,0,0,0,552.156,148.368Zm27.761,16.027c-1.121-.646-2.028-.129-2.028,1.156a4.467,4.467,0,0,0,2.028,3.5c1.12.646,2.028.129,2.028-1.156A4.469,4.469,0,0,0,579.917,164.395Zm-41.642-24.041c-1.119-.647-2.028-.129-2.028,1.156a4.468,4.468,0,0,0,2.028,3.5c1.12.647,2.029.129,2.029-1.156A4.467,4.467,0,0,0,538.275,140.354Zm34.7,20.034c-1.12-.647-2.029-.129-2.029,1.156a4.467,4.467,0,0,0,2.029,3.5c1.119.647,2.028.13,2.028-1.156A4.468,4.468,0,0,0,572.977,160.388ZM559.1,152.374c-1.119-.647-2.028-.129-2.028,1.156a4.469,4.469,0,0,0,2.028,3.5c1.121.647,2.028.13,2.028-1.156A4.465,4.465,0,0,0,559.1,152.374Zm6.941,4.006c-1.121-.646-2.029-.129-2.029,1.156a4.467,4.467,0,0,0,2.029,3.5c1.119.646,2.028.129,2.028-1.156A4.473,4.473,0,0,0,566.037,156.381Zm-20.821-12.02c-1.12-.646-2.028-.129-2.028,1.156a4.465,4.465,0,0,0,2.028,3.5c1.119.647,2.028.13,2.028-1.156A4.468,4.468,0,0,0,545.216,144.36Zm6.94,12.364c-1.121-.646-2.028-.129-2.028,1.156a4.469,4.469,0,0,0,2.028,3.5c1.119.646,2.028.129,2.028-1.156A4.471,4.471,0,0,0,552.156,156.724Zm-6.94-4.006c-1.12-.647-2.028-.13-2.028,1.156a4.465,4.465,0,0,0,2.028,3.5c1.119.647,2.028.129,2.028-1.156A4.468,4.468,0,0,0,545.216,152.717Zm34.7,20.034c-1.121-.646-2.028-.129-2.028,1.156a4.469,4.469,0,0,0,2.028,3.5c1.12.646,2.028.129,2.028-1.156A4.468,4.468,0,0,0,579.917,172.752Zm-13.88-8.014c-1.121-.646-2.029-.129-2.029,1.156a4.471,4.471,0,0,0,2.029,3.5c1.119.646,2.028.129,2.028-1.156A4.473,4.473,0,0,0,566.037,164.738Zm-6.941-4.006c-1.119-.647-2.028-.13-2.028,1.156a4.469,4.469,0,0,0,2.028,3.5c1.121.647,2.028.129,2.028-1.156A4.465,4.465,0,0,0,559.1,160.732Zm13.881,8.014c-1.12-.647-2.029-.13-2.029,1.156a4.469,4.469,0,0,0,2.029,3.5c1.119.646,2.028.129,2.028-1.156A4.468,4.468,0,0,0,572.977,168.746Zm-34.7-20.036c-1.119-.646-2.028-.129-2.028,1.156a4.472,4.472,0,0,0,2.028,3.5c1.12.646,2.029.129,2.029-1.156A4.471,4.471,0,0,0,538.275,148.71Zm0,8.357c-1.119-.647-2.028-.129-2.028,1.156a4.468,4.468,0,0,0,2.028,3.5c1.12.647,2.029.13,2.029-1.156A4.467,4.467,0,0,0,538.275,157.067Zm6.941,4.006c-1.12-.646-2.028-.129-2.028,1.156a4.468,4.468,0,0,0,2.028,3.5c1.119.646,2.028.129,2.028-1.156A4.472,4.472,0,0,0,545.216,161.074ZM566.037,173.1c-1.121-.647-2.029-.129-2.029,1.156a4.467,4.467,0,0,0,2.029,3.5c1.119.647,2.028.13,2.028-1.156A4.469,4.469,0,0,0,566.037,173.1Zm13.88,8.014c-1.121-.647-2.028-.129-2.028,1.156a4.465,4.465,0,0,0,2.028,3.5c1.12.647,2.028.129,2.028-1.156A4.465,4.465,0,0,0,579.917,181.109Zm-6.94-4.008c-1.12-.646-2.029-.129-2.029,1.156a4.469,4.469,0,0,0,2.029,3.5c1.119.646,2.028.129,2.028-1.156A4.472,4.472,0,0,0,572.977,177.1ZM559.1,169.088c-1.119-.646-2.028-.129-2.028,1.156a4.473,4.473,0,0,0,2.028,3.5c1.121.646,2.028.129,2.028-1.156A4.469,4.469,0,0,0,559.1,169.088Zm-6.94-4.006c-1.121-.647-2.028-.129-2.028,1.156a4.465,4.465,0,0,0,2.028,3.5c1.119.647,2.028.13,2.028-1.156A4.469,4.469,0,0,0,552.156,165.081Zm27.761,24.385c-1.121-.647-2.028-.13-2.028,1.155a4.466,4.466,0,0,0,2.028,3.5c1.12.646,2.028.129,2.028-1.156A4.466,4.466,0,0,0,579.917,189.467Zm-13.88-8.014c-1.121-.647-2.029-.13-2.029,1.156a4.468,4.468,0,0,0,2.029,3.5c1.119.646,2.028.129,2.028-1.156A4.469,4.469,0,0,0,566.037,181.453Zm-20.821-12.022c-1.12-.646-2.028-.129-2.028,1.156a4.469,4.469,0,0,0,2.028,3.5c1.119.646,2.028.129,2.028-1.156A4.471,4.471,0,0,0,545.216,169.431Zm-6.941-4.006c-1.119-.647-2.028-.13-2.028,1.156a4.468,4.468,0,0,0,2.028,3.5c1.12.647,2.029.129,2.029-1.156A4.467,4.467,0,0,0,538.275,165.425Zm20.821,12.02c-1.119-.646-2.028-.129-2.028,1.156a4.473,4.473,0,0,0,2.028,3.5c1.121.646,2.028.129,2.028-1.156A4.468,4.468,0,0,0,559.1,177.445Zm-6.94-4.006c-1.121-.647-2.028-.13-2.028,1.156a4.465,4.465,0,0,0,2.028,3.5c1.119.646,2.028.129,2.028-1.156A4.469,4.469,0,0,0,552.156,173.439Zm20.821,12.02c-1.12-.647-2.029-.129-2.029,1.156a4.471,4.471,0,0,0,2.029,3.5c1.119.646,2.028.129,2.028-1.157A4.468,4.468,0,0,0,572.977,185.459Z" transform="translate(0 4.969)" fill="url(#linear-gradient)"/>
      <path id="Path_625" data-name="Path 625" d="M606.636,122.773a4.465,4.465,0,0,0-2.028,3.5c0,1.285.907,1.8,2.028,1.156a4.467,4.467,0,0,0,2.028-3.5C608.664,122.643,607.756,122.126,606.636,122.773ZM578.875,138.8a4.473,4.473,0,0,0-2.028,3.5c0,1.285.908,1.8,2.028,1.156a4.468,4.468,0,0,0,2.028-3.5C580.9,138.671,580,138.154,578.875,138.8Zm13.881-8.014a4.471,4.471,0,0,0-2.029,3.5c0,1.285.908,1.8,2.029,1.156a4.468,4.468,0,0,0,2.028-3.5C594.783,130.657,593.875,130.14,592.756,130.786Zm-6.941,4.008a4.471,4.471,0,0,0-2.028,3.5c0,1.286.908,1.8,2.028,1.156a4.467,4.467,0,0,0,2.029-3.5C587.844,134.665,586.935,134.147,585.815,134.793Zm27.761-16.028a4.471,4.471,0,0,0-2.028,3.5c0,1.285.908,1.8,2.028,1.156a4.471,4.471,0,0,0,2.029-3.5C615.6,118.637,614.7,118.119,613.576,118.765Zm-13.88,8.014a4.469,4.469,0,0,0-2.029,3.5c0,1.285.908,1.8,2.029,1.156a4.473,4.473,0,0,0,2.028-3.5C601.724,126.651,600.815,126.133,599.7,126.779Zm20.821-7.367a4.468,4.468,0,0,0,2.028-3.5c0-1.286-.908-1.8-2.028-1.156a4.467,4.467,0,0,0-2.029,3.5C618.488,119.541,619.4,120.06,620.517,119.413ZM599.7,135.137a4.467,4.467,0,0,0-2.029,3.5c0,1.285.908,1.8,2.029,1.156a4.469,4.469,0,0,0,2.028-3.5C601.724,135.007,600.815,134.489,599.7,135.137Zm13.88-8.014a4.468,4.468,0,0,0-2.028,3.5c0,1.286.908,1.8,2.028,1.156a4.467,4.467,0,0,0,2.029-3.5C615.6,126.994,614.7,126.475,613.576,127.123Zm6.941-4.008a4.471,4.471,0,0,0-2.029,3.5c0,1.285.908,1.8,2.029,1.156a4.471,4.471,0,0,0,2.028-3.5C622.545,122.986,621.636,122.469,620.517,123.115Zm-13.881,8.014a4.468,4.468,0,0,0-2.028,3.5c0,1.285.907,1.8,2.028,1.156a4.469,4.469,0,0,0,2.028-3.5C608.664,131,607.756,130.483,606.636,131.129Zm-20.821,12.022a4.469,4.469,0,0,0-2.028,3.5c0,1.285.908,1.8,2.028,1.156a4.467,4.467,0,0,0,2.029-3.5C587.844,143.021,586.935,142.5,585.815,143.151Zm-6.94,4.006a4.471,4.471,0,0,0-2.028,3.5c0,1.285.908,1.8,2.028,1.156a4.469,4.469,0,0,0,2.028-3.5C580.9,147.028,580,146.511,578.875,147.157Zm13.881-8.014a4.469,4.469,0,0,0-2.029,3.5c0,1.285.908,1.8,2.029,1.156a4.472,4.472,0,0,0,2.028-3.5C594.783,139.014,593.875,138.5,592.756,139.143Zm27.761-7.671a4.467,4.467,0,0,0-2.029,3.5c0,1.286.908,1.8,2.029,1.157a4.472,4.472,0,0,0,2.028-3.5C622.545,131.344,621.636,130.826,620.517,131.472ZM592.756,147.5a4.468,4.468,0,0,0-2.029,3.5c0,1.286.908,1.8,2.029,1.156a4.468,4.468,0,0,0,2.028-3.5C594.783,147.372,593.875,146.854,592.756,147.5Zm6.94-4.008a4.471,4.471,0,0,0-2.029,3.5c0,1.285.908,1.8,2.029,1.156a4.471,4.471,0,0,0,2.028-3.5C601.724,143.364,600.815,142.847,599.7,143.493Zm-20.821,12.022a4.469,4.469,0,0,0-2.028,3.5c0,1.286.908,1.8,2.028,1.156a4.465,4.465,0,0,0,2.028-3.5C580.9,155.386,580,154.867,578.875,155.515Zm6.94-4.008a4.473,4.473,0,0,0-2.028,3.5c0,1.285.908,1.8,2.028,1.156a4.469,4.469,0,0,0,2.029-3.5C587.844,151.378,586.935,150.861,585.815,151.507Zm27.761-16.028a4.472,4.472,0,0,0-2.028,3.5c0,1.285.908,1.8,2.028,1.156a4.469,4.469,0,0,0,2.029-3.5C615.6,135.35,614.7,134.833,613.576,135.479Zm-6.94,4.008a4.465,4.465,0,0,0-2.028,3.5c0,1.286.907,1.8,2.028,1.156a4.465,4.465,0,0,0,2.028-3.5C608.664,139.358,607.756,138.84,606.636,139.486Zm-13.88,16.371a4.467,4.467,0,0,0-2.029,3.5c0,1.285.908,1.8,2.029,1.156a4.468,4.468,0,0,0,2.028-3.5C594.783,155.728,593.875,155.211,592.756,155.858Zm-6.941,4.006a4.471,4.471,0,0,0-2.028,3.5c0,1.285.908,1.8,2.028,1.156a4.471,4.471,0,0,0,2.029-3.5C587.844,159.735,586.935,159.218,585.815,159.864Zm-6.94,4.008a4.469,4.469,0,0,0-2.028,3.5c0,1.285.908,1.8,2.028,1.156a4.467,4.467,0,0,0,2.028-3.5C580.9,163.742,580,163.225,578.875,163.872Zm27.761-16.028a4.465,4.465,0,0,0-2.028,3.5c0,1.285.907,1.8,2.028,1.156a4.465,4.465,0,0,0,2.028-3.5C608.664,147.714,607.756,147.2,606.636,147.844Zm-6.94,4.006a4.469,4.469,0,0,0-2.029,3.5c0,1.285.908,1.8,2.029,1.156a4.473,4.473,0,0,0,2.028-3.5C601.724,151.721,600.815,151.2,599.7,151.85Zm13.88-8.014a4.471,4.471,0,0,0-2.028,3.5c0,1.285.908,1.8,2.028,1.156a4.471,4.471,0,0,0,2.029-3.5C615.6,143.707,614.7,143.19,613.576,143.836Zm6.941-4.006a4.467,4.467,0,0,0-2.029,3.5c0,1.285.908,1.8,2.029,1.156a4.468,4.468,0,0,0,2.028-3.5C622.545,139.7,621.636,139.182,620.517,139.83Zm-34.7,28.392a4.469,4.469,0,0,0-2.028,3.5c0,1.286.908,1.8,2.028,1.156a4.467,4.467,0,0,0,2.029-3.5C587.844,168.093,586.935,167.574,585.815,168.222Zm-6.94,4.006a4.473,4.473,0,0,0-2.028,3.5c0,1.285.908,1.8,2.028,1.156a4.468,4.468,0,0,0,2.028-3.5C580.9,172.1,580,171.582,578.875,172.228Zm41.642-24.042a4.471,4.471,0,0,0-2.029,3.5c0,1.285.908,1.8,2.029,1.156a4.471,4.471,0,0,0,2.028-3.5C622.545,148.057,621.636,147.54,620.517,148.186Zm-6.941,4.008a4.468,4.468,0,0,0-2.028,3.5c0,1.286.908,1.8,2.028,1.156a4.467,4.467,0,0,0,2.029-3.5C615.6,152.065,614.7,151.546,613.576,152.193Zm-6.94,4.006a4.469,4.469,0,0,0-2.028,3.5c0,1.285.907,1.8,2.028,1.156a4.468,4.468,0,0,0,2.028-3.5C608.664,156.071,607.756,155.554,606.636,156.2Zm-13.88,8.014a4.471,4.471,0,0,0-2.029,3.5c0,1.285.908,1.8,2.029,1.156a4.472,4.472,0,0,0,2.028-3.5C594.783,164.085,593.875,163.568,592.756,164.214Zm6.94-4.006a4.467,4.467,0,0,0-2.029,3.5c0,1.286.908,1.8,2.029,1.156a4.469,4.469,0,0,0,2.028-3.5C601.724,160.079,600.815,159.56,599.7,160.208Zm6.94,4.35a4.468,4.468,0,0,0-2.028,3.5c0,1.285.907,1.8,2.028,1.156a4.469,4.469,0,0,0,2.028-3.5C608.664,164.429,607.756,163.911,606.636,164.557Zm-27.761,16.028a4.469,4.469,0,0,0-2.028,3.5c0,1.286.908,1.8,2.028,1.156a4.465,4.465,0,0,0,2.028-3.5C580.9,180.457,580,179.938,578.875,180.585Zm6.94-4.008a4.473,4.473,0,0,0-2.028,3.5c0,1.285.908,1.8,2.028,1.156a4.469,4.469,0,0,0,2.029-3.5C587.844,176.449,586.935,175.932,585.815,176.578Zm34.7-20.034a4.469,4.469,0,0,0-2.029,3.5c0,1.285.908,1.8,2.029,1.156a4.472,4.472,0,0,0,2.028-3.5C622.545,156.414,621.636,155.9,620.517,156.543ZM599.7,168.564a4.471,4.471,0,0,0-2.029,3.5c0,1.285.908,1.8,2.029,1.156a4.471,4.471,0,0,0,2.028-3.5C601.724,168.435,600.815,167.918,599.7,168.564Zm-6.94,4.008a4.467,4.467,0,0,0-2.029,3.5c0,1.285.908,1.8,2.029,1.156a4.472,4.472,0,0,0,2.028-3.5C594.783,172.443,593.875,171.925,592.756,172.571Zm20.82-12.022a4.472,4.472,0,0,0-2.028,3.5c0,1.285.908,1.8,2.028,1.156a4.467,4.467,0,0,0,2.029-3.5C615.6,160.421,614.7,159.9,613.576,160.55Zm-34.7,28.393a4.469,4.469,0,0,0-2.028,3.5c0,1.285.908,1.8,2.028,1.156a4.465,4.465,0,0,0,2.028-3.5C580.9,188.813,580,188.3,578.875,188.943Zm13.881-8.014a4.467,4.467,0,0,0-2.029,3.5c0,1.285.908,1.8,2.029,1.156a4.468,4.468,0,0,0,2.028-3.5C594.783,180.8,593.875,180.281,592.756,180.929Zm6.94-4.008a4.471,4.471,0,0,0-2.029,3.5c0,1.285.908,1.8,2.029,1.156a4.473,4.473,0,0,0,2.028-3.5C601.724,176.792,600.815,176.275,599.7,176.921Zm6.94-4.006a4.465,4.465,0,0,0-2.028,3.5c0,1.285.907,1.8,2.028,1.156a4.465,4.465,0,0,0,2.028-3.5C608.664,172.785,607.756,172.267,606.636,172.915Zm6.94-4.008a4.472,4.472,0,0,0-2.028,3.5c0,1.285.908,1.8,2.028,1.156a4.469,4.469,0,0,0,2.029-3.5C615.6,168.778,614.7,168.261,613.576,168.907Zm6.941-4.006a4.467,4.467,0,0,0-2.029,3.5c0,1.286.908,1.8,2.029,1.156a4.468,4.468,0,0,0,2.028-3.5C622.545,164.771,621.636,164.253,620.517,164.9Zm-34.7,20.034a4.471,4.471,0,0,0-2.028,3.5c0,1.285.908,1.8,2.028,1.156a4.471,4.471,0,0,0,2.029-3.5C587.844,184.806,586.935,184.289,585.815,184.935Z" transform="translate(7.796 4.869)" fill="url(#linear-gradient)"/>
      <path id="Path_626" data-name="Path 626" d="M582.558,91.94a4.463,4.463,0,0,0,4.043.007,1.232,1.232,0,0,0-.013-2.334,4.471,4.471,0,0,0-4.043-.007A1.232,1.232,0,0,0,582.558,91.94Zm17.911,5.687a4.471,4.471,0,0,0-4.043-.007,1.232,1.232,0,0,0,.012,2.334,4.467,4.467,0,0,0,4.043.008A1.233,1.233,0,0,0,600.47,97.627Zm-6.941-4.006a4.463,4.463,0,0,0-4.043-.007,1.232,1.232,0,0,0,.013,2.334,4.471,4.471,0,0,0,4.043.007A1.232,1.232,0,0,0,593.529,93.621Zm13.881,8.014a4.463,4.463,0,0,0-4.043-.007,1.232,1.232,0,0,0,.013,2.334,4.468,4.468,0,0,0,4.042.007A1.232,1.232,0,0,0,607.41,101.635Zm20.82,12.02a4.468,4.468,0,0,0-4.042-.007,1.232,1.232,0,0,0,.012,2.334,4.463,4.463,0,0,0,4.043.007A1.232,1.232,0,0,0,628.23,113.656Zm-6.94-4.006a4.467,4.467,0,0,0-4.043-.008,1.233,1.233,0,0,0,.013,2.335,4.471,4.471,0,0,0,4.043.007A1.232,1.232,0,0,0,621.29,109.649Zm-6.94-4.008a4.471,4.471,0,0,0-4.043-.007,1.232,1.232,0,0,0,.013,2.334,4.463,4.463,0,0,0,4.043.007A1.232,1.232,0,0,0,614.35,105.641Zm-14.178.172a4.471,4.471,0,0,0-4.043-.007,1.232,1.232,0,0,0,.013,2.334,4.467,4.467,0,0,0,4.043.007A1.232,1.232,0,0,0,600.172,105.813Zm13.881,8.014a4.467,4.467,0,0,0-4.043-.007,1.232,1.232,0,0,0,.013,2.334,4.467,4.467,0,0,0,4.043.007A1.232,1.232,0,0,0,614.053,113.827Zm-20.821-12.02a4.467,4.467,0,0,0-4.043-.008,1.233,1.233,0,0,0,.013,2.335,4.471,4.471,0,0,0,4.043.007A1.232,1.232,0,0,0,593.232,101.807Zm-6.94-4.008a4.467,4.467,0,0,0-4.043-.007,1.232,1.232,0,0,0,.012,2.334,4.466,4.466,0,0,0,4.045.007A1.232,1.232,0,0,0,586.292,97.8Zm20.821,12.02a4.471,4.471,0,0,0-4.043-.007,1.233,1.233,0,0,0,.012,2.335,4.471,4.471,0,0,0,4.043.007A1.233,1.233,0,0,0,607.113,109.82Zm13.88,8.014a4.471,4.471,0,0,0-4.043-.007,1.233,1.233,0,0,0,.013,2.335,4.471,4.471,0,0,0,4.043.007A1.233,1.233,0,0,0,620.993,117.834ZM575.32,96.12a4.471,4.471,0,0,0,4.043.007,1.232,1.232,0,0,0-.012-2.334,4.467,4.467,0,0,0-4.043-.008A1.233,1.233,0,0,0,575.32,96.12Zm3.735,5.858a4.473,4.473,0,0,0-4.045-.007,1.233,1.233,0,0,0,.013,2.335,4.471,4.471,0,0,0,4.043.007A1.233,1.233,0,0,0,579.055,101.977Zm6.94,4.008a4.467,4.467,0,0,0-4.043-.007,1.232,1.232,0,0,0,.012,2.334,4.467,4.467,0,0,0,4.043.007A1.232,1.232,0,0,0,585.995,105.985Zm6.94,4.006a4.471,4.471,0,0,0-4.043-.007,1.233,1.233,0,0,0,.013,2.335,4.471,4.471,0,0,0,4.043.007A1.233,1.233,0,0,0,592.935,109.991Zm-20.821-12.02a4.467,4.467,0,0,0-4.043-.007,1.232,1.232,0,0,0,.013,2.334,4.467,4.467,0,0,0,4.043.007A1.232,1.232,0,0,0,572.114,97.971Zm41.643,24.042a4.464,4.464,0,0,0-4.043-.007,1.232,1.232,0,0,0,.012,2.334,4.471,4.471,0,0,0,4.043.007A1.232,1.232,0,0,0,613.756,122.013ZM599.875,114a4.467,4.467,0,0,0-4.043-.007,1.232,1.232,0,0,0,.013,2.334,4.471,4.471,0,0,0,4.043.007A1.232,1.232,0,0,0,599.875,114Zm6.94,4.006a4.471,4.471,0,0,0-4.043-.007,1.233,1.233,0,0,0,.013,2.335,4.471,4.471,0,0,0,4.043.007A1.233,1.233,0,0,0,606.815,118.005Zm-.3,8.186a4.471,4.471,0,0,0-4.043-.007,1.232,1.232,0,0,0,.013,2.334,4.467,4.467,0,0,0,4.043.007A1.232,1.232,0,0,0,606.518,126.191Zm-41.641-24.042a4.471,4.471,0,0,0-4.043-.007,1.232,1.232,0,0,0,.012,2.334,4.467,4.467,0,0,0,4.043.008A1.233,1.233,0,0,0,564.877,102.149Zm6.94,4.008a4.467,4.467,0,0,0-4.043-.007,1.232,1.232,0,0,0,.013,2.334,4.471,4.471,0,0,0,4.043.007A1.232,1.232,0,0,0,571.817,106.156Zm20.821,12.02a4.471,4.471,0,0,0-4.043-.007,1.232,1.232,0,0,0,.012,2.334,4.463,4.463,0,0,0,4.043.007A1.232,1.232,0,0,0,592.638,118.177Zm-13.881-8.014a4.471,4.471,0,0,0-4.043-.007,1.232,1.232,0,0,0,.013,2.334,4.467,4.467,0,0,0,4.043.008A1.233,1.233,0,0,0,578.757,110.163Zm20.821,12.022a4.467,4.467,0,0,0-4.043-.008,1.233,1.233,0,0,0,.013,2.335,4.471,4.471,0,0,0,4.043.007A1.232,1.232,0,0,0,599.578,122.184ZM585.7,114.17a4.466,4.466,0,0,0-4.044-.007,1.232,1.232,0,0,0,.013,2.334,4.471,4.471,0,0,0,4.043.007A1.232,1.232,0,0,0,585.7,114.17Zm-28.059-7.844a4.471,4.471,0,0,0-4.043-.007,1.233,1.233,0,0,0,.013,2.335,4.471,4.471,0,0,0,4.043.007A1.233,1.233,0,0,0,557.639,106.327Zm13.881,8.014a4.471,4.471,0,0,0-4.043-.007,1.233,1.233,0,0,0,.012,2.335,4.471,4.471,0,0,0,4.043.007A1.233,1.233,0,0,0,571.52,114.341Zm20.821,12.022a4.469,4.469,0,0,0-4.044-.007,1.232,1.232,0,0,0,.013,2.334,4.467,4.467,0,0,0,4.043.007A1.232,1.232,0,0,0,592.341,126.363Zm-27.762-16.028a4.468,4.468,0,0,0-4.042-.007,1.232,1.232,0,0,0,.012,2.334,4.463,4.463,0,0,0,4.043.007A1.232,1.232,0,0,0,564.579,110.335Zm13.881,8.014a4.471,4.471,0,0,0-4.043-.007,1.232,1.232,0,0,0,.013,2.334,4.463,4.463,0,0,0,4.043.007A1.232,1.232,0,0,0,578.46,118.349Zm20.821,12.02a4.471,4.471,0,0,0-4.043-.007,1.233,1.233,0,0,0,.012,2.335,4.473,4.473,0,0,0,4.045.007A1.233,1.233,0,0,0,599.281,130.369ZM585.4,122.355a4.471,4.471,0,0,0-4.043-.007,1.233,1.233,0,0,0,.013,2.335,4.471,4.471,0,0,0,4.043.007A1.233,1.233,0,0,0,585.4,122.355Zm-28.058-7.842a4.471,4.471,0,0,0-4.043-.007,1.233,1.233,0,0,0,.013,2.335,4.471,4.471,0,0,0,4.043.007A1.233,1.233,0,0,0,557.342,114.513ZM585.1,130.541a4.471,4.471,0,0,0-4.043-.007,1.233,1.233,0,0,0,.013,2.335,4.471,4.471,0,0,0,4.043.007A1.233,1.233,0,0,0,585.1,130.541Zm-34.7-20.034a4.467,4.467,0,0,0-4.043-.007,1.232,1.232,0,0,0,.013,2.334,4.467,4.467,0,0,0,4.043.007A1.232,1.232,0,0,0,550.4,110.506Zm13.88,8.014a4.467,4.467,0,0,0-4.043-.007,1.232,1.232,0,0,0,.013,2.334,4.467,4.467,0,0,0,4.043.007A1.232,1.232,0,0,0,564.282,118.52Zm27.761,16.028a4.463,4.463,0,0,0-4.043-.007,1.232,1.232,0,0,0,.013,2.334,4.471,4.471,0,0,0,4.043.007A1.232,1.232,0,0,0,592.043,134.548Zm-13.88-8.014a4.467,4.467,0,0,0-4.043-.007,1.232,1.232,0,0,0,.013,2.334,4.468,4.468,0,0,0,4.042.007A1.232,1.232,0,0,0,578.163,126.534Zm-6.94-4.008a4.471,4.471,0,0,0-4.043-.007,1.233,1.233,0,0,0,.012,2.335,4.471,4.471,0,0,0,4.043.007A1.233,1.233,0,0,0,571.223,122.527Zm-21.118-3.835a4.463,4.463,0,0,0-4.043-.007,1.232,1.232,0,0,0,.012,2.334,4.471,4.471,0,0,0,4.043.007A1.232,1.232,0,0,0,550.105,118.692Zm-6.94-4.008a4.471,4.471,0,0,0-4.043-.007,1.233,1.233,0,0,0,.012,2.335,4.471,4.471,0,0,0,4.043.007A1.233,1.233,0,0,0,543.165,114.684Zm34.7,20.036a4.467,4.467,0,0,0-4.043-.008,1.233,1.233,0,0,0,.012,2.335,4.471,4.471,0,0,0,4.043.007A1.232,1.232,0,0,0,577.867,134.72Zm-13.881-8.014a4.463,4.463,0,0,0-4.043-.007,1.232,1.232,0,0,0,.013,2.334,4.471,4.471,0,0,0,4.043.007A1.232,1.232,0,0,0,563.985,126.706Zm6.94,4.006a4.468,4.468,0,0,0-4.042-.007,1.232,1.232,0,0,0,.012,2.334,4.463,4.463,0,0,0,4.043.007A1.232,1.232,0,0,0,570.925,130.712Zm-13.88-8.014a4.471,4.471,0,0,0-4.043-.007,1.233,1.233,0,0,0,.013,2.335,4.471,4.471,0,0,0,4.043.007A1.233,1.233,0,0,0,557.045,122.7Zm27.761,16.028a4.471,4.471,0,0,0-4.043-.007,1.232,1.232,0,0,0,.013,2.334,4.461,4.461,0,0,0,4.042.007A1.232,1.232,0,0,0,584.807,138.726Z" transform="translate(0.393)" fill="url(#linear-gradient)"/>
    </g>
  </g>
</svg>
